PathFileType	4	(X/Y/Z)	output.trc
DataRate	CameraRate	NumFrames	NumMarkers	Units	OrigDataRate	OrigDataStartFrame	OrigNumFrames
200	200	4	66	mm	200	148	295
Frame#	Time			LASI			RASI			RSACR			LSACR			USACR			LBAR			RBAR			RHEE			RMT1			RMT5			RMT2			LHEE			LMT1			LMT5			LMT2			LMMAL			LMFC			LLFC			LLMAL			LTIB4			LTIB2			LTIB3			LTIB1			RMMAL			RMFC			RLFC			RLMAL			RTIB1			RTIB2			RTIB3			RTHI1			RTHI4			RTHI3			RTHI2			LTHI1			LTHI4			LTHI3			LTHI2			FHD			LBHD			RBHD			C7			T10			CLAV			LSHO			RSHO			LRAD			LUL			LRFIN			RRAD			RUL			RUFIN			RLEP			RMEP			LLEP			LMEP			LDUPA			LMUPA			LUUPA			RDUPA			RUUPA			RMUPA			RKJC			LKJC			LAKJC			RAKJC
		X1	Y1	Z1	X2	Y2	Z2	X3	Y3	Z3	X4	Y4	Z4	X5	Y5	Z5	X6	Y6	Z6	X7	Y7	Z7	X8	Y8	Z8	X9	Y9	Z9	X10	Y10	Z10	X11	Y11	Z11	X12	Y12	Z12	X13	Y13	Z13	X14	Y14	Z14	X15	Y15	Z15	X16	Y16	Z16	X17	Y17	Z17	X18	Y18	Z18	X19	Y19	Z19	X20	Y20	Z20	X21	Y21	Z21	X22	Y22	Z22	X23	Y23	Z23	X24	Y24	Z24	X25	Y25	Z25	X26	Y26	Z26	X27	Y27	Z27	X28	Y28	Z28	X29	Y29	Z29	X30	Y30	Z30	X31	Y31	Z31	X32	Y32	Z32	X33	Y33	Z33	X34	Y34	Z34	X35	Y35	Z35	X36	Y36	Z36	X37	Y37	Z37	X38	Y38	Z38	X39	Y39	Z39	X40	Y40	Z40	X41	Y41	Z41	X42	Y42	Z42	X43	Y43	Z43	X44	Y44	Z44	X45	Y45	Z45	X46	Y46	Z46	X47	Y47	Z47	X48	Y48	Z48	X49	Y49	Z49	X50	Y50	Z50	X51	Y51	Z51	X52	Y52	Z52	X53	Y53	Z53	X54	Y54	Z54	X55	Y55	Z55	X56	Y56	Z56	X57	Y57	Z57	X58	Y58	Z58	X59	Y59	Z59	X60	Y60	Z60	X61	Y61	Z61	X62	Y62	Z62	X63	Y63	Z63	X64	Y64	Z64	X65	Y65	Z65	X66	Y66	Z66
147	0.735000	133.090424	762.000488	918.147278	128.721252	984.479492	918.697449	308.489532	912.378784	950.112610	307.680542	852.470459	953.357971	296.806152	882.326782	966.487061	1270.840576	-346.501068	26.299715	1226.432617	1876.937622	26.280542	323.065796	1019.646240	39.833706	128.166550	1043.313599	43.444263	165.062424	1113.660034	34.828613	140.173859	1079.956909	42.694820	326.251953	745.165588	45.845589	134.382355	736.456482	46.328411	169.964600	662.783875	33.429676	143.160950	698.046143	45.906181	276.678619	778.712280	72.975075	232.462601	829.053467	456.950317	218.932312	721.405823	453.983032	278.801636	700.998352	69.146790	290.136475	691.470642	209.650070	313.699951	691.437073	271.011414	263.216797	684.438416	268.154175	301.411713	687.098083	314.338043	275.166168	994.081665	68.345795	234.898834	935.292358	446.536224	220.032959	1041.176392	461.294800	284.645782	1068.566162	72.258385	256.750488	1082.666626	319.292542	307.180573	1077.157837	314.106079	276.288849	1081.291992	256.189026	240.879669	1060.012939	783.828003	242.110275	1064.570068	635.080750	190.689651	1066.480225	636.971130	218.347137	1070.036987	697.018738	237.860962	698.619568	778.897217	235.839233	695.047119	646.563843	185.228165	693.370605	637.441223	199.513199	689.510803	701.180359	130.564331	776.148010	1593.184326	241.313477	787.138306	1576.230591	252.828766	910.606506	1571.232788	263.034454	858.245911	1391.216919	284.932831	877.443909	1007.399231	140.610489	872.965820	1328.327026	244.749741	725.408203	1380.939575	236.588333	987.134888	1396.670044	166.310822	222.859207	1359.405396	206.922775	222.576309	1354.831665	153.022766	130.913223	1338.890259	241.096725	1500.936523	1388.738159	287.990326	1500.079590	1382.537231	235.339676	1591.112915	1390.867798	293.230560	1271.569214	1329.415039	254.920914	1272.040161	1295.941895	221.588882	454.274048	1300.821411	180.647858	466.898651	1278.523926	237.800934	506.384247	1354.342651	201.865341	536.921204	1372.005493	238.868118	585.667236	1362.499023	266.290558	1205.985474	1381.937012	256.989197	1144.312744	1383.655762	216.013474	1212.596680	1385.181519	227.465897	988.234375	453.915527	225.697449	775.229614	455.466675	277.740112	739.855347	71.060928	279.905975	1031.323975	70.302094
148	0.740000	133.108658	761.988220	918.146484	128.730911	984.480347	918.703308	308.507538	912.382751	950.118713	307.695343	852.467163	953.355286	296.808319	882.327148	966.492065	1270.836304	-346.551300	26.308809	1226.438354	1876.951050	26.288107	323.057098	1019.647522	39.835003	128.166534	1043.311401	43.444164	165.066696	1113.654053	34.820934	140.167358	1079.961914	42.697754	326.248169	745.167603	45.842911	134.386780	736.454224	46.323071	170.011032	662.798950	33.381588	143.161606	698.039551	45.908619	276.670074	778.714111	72.972198	232.472961	829.045837	456.952148	218.928574	721.401123	453.975983	278.798767	700.996582	69.146584	290.140320	691.477051	209.648361	313.657990	691.257263	271.258942	263.201935	684.444702	268.156952	301.382141	687.100220	314.364410	275.165894	994.073242	68.345161	234.897461	935.285339	446.536682	220.041763	1041.171997	461.292999	284.634644	1068.565918	72.267014	256.743683	1082.671631	319.282257	307.177399	1077.156006	314.100067	276.293060	1081.289673	256.188080	240.896545	1060.005615	783.825562	241.956787	1064.795898	635.050781	190.698547	1066.451172	636.959290	218.234024	1070.087891	697.134521	237.881439	698.618103	778.890076	235.868134	695.038696	646.536194	185.232986	693.373108	637.440247	199.534607	689.509644	701.178589	130.554596	776.161560	1593.196533	241.302322	787.147461	1576.234253	252.831116	910.618530	1571.243530	263.049774	858.240540	1391.211914	284.934814	877.438538	1007.400940	140.631226	872.958313	1328.325073	244.774521	725.409119	1380.947388	236.608643	987.129456	1396.671753	166.307938	222.868164	1359.427368	206.932373	222.579071	1354.867798	153.026550	130.908875	1338.918335	241.081055	1500.939697	1388.736450	287.959259	1500.067627	1382.537476	235.320770	1591.118042	1390.873779	293.217499	1271.558228	1329.413696	254.902969	1272.038574	1295.949829	221.610397	454.261047	1300.840820	180.668060	466.887115	1278.536255	237.802628	506.384979	1354.356567	201.883850	536.914612	1372.005249	238.838348	585.642273	1362.676147	266.293030	1205.981323	1381.934570	256.996002	1144.302979	1383.659668	216.001999	1212.582642	1385.180786	227.469604	988.228638	453.914856	225.700775	775.223511	455.464050	277.734436	739.855347	71.059387	279.900269	1031.319580	70.306091
149	0.745000	133.119049	761.983337	918.158386	128.744690	984.468018	918.710693	308.516449	912.376526	950.116882	307.705658	852.463989	953.357361	296.824493	882.328979	966.483704	1270.845581	-346.477570	26.305883	1226.434082	1876.951538	26.295540	323.057495	1019.653381	39.835232	128.168427	1043.301636	43.442169	165.061539	1113.653809	34.827347	140.165436	1079.958496	42.696671	326.246582	745.178772	45.848476	134.380630	736.453674	46.333775	169.976608	662.784668	33.415234	143.164322	698.036255	45.915157	276.678284	778.714783	72.967949	232.503754	829.036438	456.946777	218.948990	721.391052	453.976715	278.797974	700.991943	69.148201	290.158112	691.475403	209.648270	313.729858	691.435669	271.029327	263.204956	684.448669	268.149445	301.279724	687.192627	314.352631	275.162354	994.071716	68.346222	234.909958	935.289307	446.539185	220.042068	1041.172241	461.294586	284.639435	1068.567139	72.267250	256.753998	1082.668091	319.285217	307.160248	1077.147827	314.087372	276.298462	1081.282349	256.182648	240.890793	1060.016846	783.823975	241.959015	1064.811523	635.047974	190.698441	1066.462280	636.990967	218.357773	1070.033325	697.039734	237.898087	698.621582	778.897583	235.881516	695.017517	646.547180	185.230087	693.368347	637.450012	199.549438	689.505493	701.182068	130.550873	776.160889	1593.193726	241.337769	787.137878	1576.234497	252.832245	910.621521	1571.237793	263.047333	858.239685	1391.215698	284.949951	877.447021	1007.399902	140.650208	872.947998	1328.315308	244.796402	725.398865	1380.950439	236.619675	987.116150	1396.664062	166.305374	222.868851	1359.457275	206.941528	222.573914	1354.886841	153.023331	130.904358	1338.951660	241.053207	1500.934326	1388.747559	287.953094	1500.061157	1382.542969	235.290985	1591.116577	1390.880981	293.201752	1271.561646	1329.417603	254.888168	1272.046509	1295.955566	221.617554	454.259308	1300.858765	180.684128	466.882904	1278.551147	237.796448	506.381775	1354.386963	201.892838	536.909973	1372.022583	238.825043	585.634033	1362.690796	266.275513	1205.988281	1381.942505	256.998413	1144.299316	1383.667725	215.999771	1212.578247	1385.181030	227.476013	988.230774	453.916870	225.726379	775.213745	455.461731	277.738129	739.853394	71.058075	279.900879	1031.319458	70.306732
150	0.750000	133.137207	761.972656	918.161255	128.756744	984.456360	918.713379	308.530334	912.383301	950.119934	307.735840	852.466431	953.353760	296.851807	882.327515	966.483337	1270.833252	-346.515442	26.297527	1226.436768	1876.952881	26.289917	323.061890	1019.646179	39.840553	128.151474	1043.307739	43.447655	165.070007	1113.654907	34.828674	140.166473	1079.957764	42.698124	326.250061	745.180237	45.846001	134.392426	736.457581	46.325954	169.970993	662.781982	33.427204	143.164719	698.036011	45.916634	276.674957	778.717712	72.975067	232.499207	829.038208	456.955933	218.963303	721.388794	453.981415	278.793243	700.994751	69.151741	290.161194	691.476013	209.654190	313.645905	691.260315	271.264404	263.202545	684.433716	268.152344	301.406921	687.093933	314.355713	275.166046	994.077576	68.339821	234.911621	935.285950	446.533295	220.045517	1041.171143	461.293762	284.638611	1068.562256	72.265518	256.747894	1082.661865	319.279449	307.179199	1077.161133	314.102295	276.292236	1081.293823	256.186279	240.901215	1060.012085	783.825134	241.960831	1064.801758	635.037476	190.696442	1066.445190	636.971008	218.352234	1070.028687	697.031860	237.923691	698.623962	778.910461	235.880173	695.014832	646.533264	185.252716	693.364807	637.439453	199.577423	689.497131	701.188477	130.560425	776.150696	1593.191895	241.323853	787.134766	1576.244263	252.835098	910.628784	1571.237671	263.056000	858.243408	1391.213989	284.972137	877.432007	1007.404297	140.666702	872.946716	1328.311279	244.811157	725.394104	1380.946167	236.625595	987.111450	1396.663086	166.321960	222.871445	1359.487671	206.953476	222.570145	1354.910400	153.034760	130.896500	1338.990845	241.035873	1500.928101	1388.759644	287.921631	1500.065552	1382.549927	235.263290	1591.119751	1390.887329	293.193207	1271.567261	1329.415649	254.875351	1272.034790	1295.956055	221.634781	454.245819	1300.866455	180.700684	466.879150	1278.556030	237.801636	506.375305	1354.403076	201.883041	536.912048	1372.030151	238.949219	585.597595	1362.400391	266.283905	1205.984131	1381.942017	256.999542	1144.302734	1383.665527	216.000793	1212.560547	1385.182007	227.478577	988.228516	453.913513	225.731262	775.213501	455.468689	277.734100	739.856201	71.063400	279.902344	1031.319946	70.302673
